<svg version="1.1" xmlns="http://www.w3.org/2000/svg" xmlns:xlink="http://www.w3.org/1999/xlink" width="6000" height="4000" viewBox="0 0 3000 2000"><defs/><g transform="scale(2,2) scale(2,2)"><g transform="scale(2,2)"><rect fill="rgb(220,220,220)" stroke="none" x="0" y="0" width="3000" height="2000" fill-opacity="1"/></g><g><text fill="rgb(0,0,0)" stroke="none" font-family="sans-serif" font-size="12px" font-style="normal" font-weight="normal" text-decoration="normal" x="10" y="1680" text-anchor="start" dominant-baseline="alphabetic" fill-opacity="1">1945</text></g><path fill="rgb(67,67,67)" stroke="none" paint-order="stroke fill markers" d=" M 10 499.9846153846154 L 25 499.9846153846154 L 25 500 L 10 500 L 10 499.9846153846154 Z" fill-opacity="1"/><g><text fill="rgb(67,67,67)" stroke="none" font-family="sans-serif" font-size="12px" font-style="normal" font-weight="normal" text-decoration="normal" x="30" y="1680" text-anchor="start" dominant-baseline="alphabetic" fill-opacity="1">1946</text></g><path fill="rgb(67,67,67)" stroke="none" paint-order="stroke fill markers" d=" M 30 499.9307692307692 L 45 499.9307692307692 L 45 500 L 30 500 L 30 499.9307692307692 Z" fill-opacity="1"/><g><text fill="rgb(67,67,67)" stroke="none" font-family="sans-serif" font-size="12px" font-style="normal" font-weight="normal" text-decoration="normal" x="50" y="1680" text-anchor="start" dominant-baseline="alphabetic" fill-opacity="1">1947</text></g><path fill="rgb(67,67,67)" stroke="none" paint-order="stroke fill markers" d=" M 50 499.9 L 65 499.9 L 65 500 L 50 500 L 50 499.9 Z" fill-opacity="1"/><g><text fill="rgb(67,67,67)" stroke="none" font-family="sans-serif" font-size="12px" font-style="normal" font-weight="normal" text-decoration="normal" x="70" y="1680" text-anchor="start" dominant-baseline="alphabetic" fill-opacity="1">1948</text></g><path fill="rgb(67,67,67)" stroke="none" paint-order="stroke fill markers" d=" M 70 499.61538461538464 L 85 499.61538461538464 L 85 500 L 70 500 L 70 499.61538461538464 Z" fill-opacity="1"/><g><text fill="rgb(67,67,67)" stroke="none" font-family="sans-serif" font-size="12px" font-style="normal" font-weight="normal" text-decoration="normal" x="90" y="1680" text-anchor="start" dominant-baseline="alphabetic" fill-opacity="1">1949</text></g><path fill="rgb(83,83,83)" stroke="none" paint-order="stroke fill markers" d=" M 90 498.68461538461537 L 105 498.68461538461537 L 105 500 L 90 500 L 90 498.68461538461537 Z" fill-opacity="1"/><g><text fill="rgb(83,83,83)" stroke="none" font-family="sans-serif" font-size="12px" font-style="normal" font-weight="normal" text-decoration="normal" x="110" y="1680" text-anchor="start" dominant-baseline="alphabetic" fill-opacity="1">1950</text></g><path fill="rgb(83,83,83)" stroke="none" paint-order="stroke fill markers" d=" M 110 497.66153846153844 L 125 497.66153846153844 L 125 500 L 110 500 L 110 497.66153846153844 Z" fill-opacity="1"/><g><text fill="rgb(83,83,83)" stroke="none" font-family="sans-serif" font-size="12px" font-style="normal" font-weight="normal" text-decoration="normal" x="130" y="1680" text-anchor="start" dominant-baseline="alphabetic" fill-opacity="1">1951</text></g><path fill="rgb(83,83,83)" stroke="none" paint-order="stroke fill markers" d=" M 130 496.4384615384615 L 145 496.4384615384615 L 145 500 L 130 500 L 130 496.4384615384615 Z" fill-opacity="1"/><g><text fill="rgb(83,83,83)" stroke="none" font-family="sans-serif" font-size="12px" font-style="normal" font-weight="normal" text-decoration="normal" x="150" y="1680" text-anchor="start" dominant-baseline="alphabetic" fill-opacity="1">1952</text></g><path fill="rgb(100,100,100)" stroke="none" paint-order="stroke fill markers" d=" M 150 493.1461538461538 L 165 493.1461538461538 L 165 500 L 150 500 L 150 493.1461538461538 Z" fill-opacity="1"/><g><text fill="rgb(100,100,100)" stroke="none" font-family="sans-serif" font-size="12px" font-style="normal" font-weight="normal" text-decoration="normal" x="170" y="1680" text-anchor="start" dominant-baseline="alphabetic" fill-opacity="1">1953</text></g><path fill="rgb(100,100,100)" stroke="none" paint-order="stroke fill markers" d=" M 170 490.0769230769231 L 185 490.0769230769231 L 185 500 L 170 500 L 170 490.0769230769231 Z" fill-opacity="1"/><g><text fill="rgb(100,100,100)" stroke="none" font-family="sans-serif" font-size="12px" font-style="normal" font-weight="normal" text-decoration="normal" x="190" y="1680" text-anchor="start" dominant-baseline="alphabetic" fill-opacity="1">1954</text></g><path fill="rgb(100,100,100)" stroke="none" paint-order="stroke fill markers" d=" M 190 485.7076923076923 L 205 485.7076923076923 L 205 500 L 190 500 L 190 485.7076923076923 Z" fill-opacity="1"/><g><text fill="rgb(100,100,100)" stroke="none" font-family="sans-serif" font-size="12px" font-style="normal" font-weight="normal" text-decoration="normal" x="210" y="1680" text-anchor="start" dominant-baseline="alphabetic" fill-opacity="1">1955</text></g><path fill="rgb(100,100,100)" stroke="none" paint-order="stroke fill markers" d=" M 210 479.75384615384615 L 225 479.75384615384615 L 225 500 L 210 500 L 210 479.75384615384615 Z" fill-opacity="1"/><g><text fill="rgb(100,100,100)" stroke="none" font-family="sans-serif" font-size="12px" font-style="normal" font-weight="normal" text-decoration="normal" x="230" y="1680" text-anchor="start" dominant-baseline="alphabetic" fill-opacity="1">1956</text></g><path fill="rgb(100,100,100)" stroke="none" paint-order="stroke fill markers" d=" M 230 467.9384615384615 L 245 467.9384615384615 L 245 500 L 230 500 L 230 467.9384615384615 Z" fill-opacity="1"/><g><text fill="rgb(100,100,100)" stroke="none" font-family="sans-serif" font-size="12px" font-style="normal" font-weight="normal" text-decoration="normal" x="250" y="1680" text-anchor="start" dominant-baseline="alphabetic" fill-opacity="1">1957</text></g><path fill="rgb(100,100,100)" stroke="none" paint-order="stroke fill markers" d=" M 250 451.83846153846156 L 265 451.83846153846156 L 265 500 L 250 500 L 250 451.83846153846156 Z" fill-opacity="1"/><g><text fill="rgb(100,100,100)" stroke="none" font-family="sans-serif" font-size="12px" font-style="normal" font-weight="normal" text-decoration="normal" x="270" y="1680" text-anchor="start" dominant-baseline="alphabetic" fill-opacity="1">1958</text></g><path fill="rgb(100,100,100)" stroke="none" paint-order="stroke fill markers" d=" M 270 436.4 L 285 436.4 L 285 500 L 270 500 L 270 436.4 Z" fill-opacity="1"/><g><text fill="rgb(100,100,100)" stroke="none" font-family="sans-serif" font-size="12px" font-style="normal" font-weight="normal" text-decoration="normal" x="290" y="1680" text-anchor="start" dominant-baseline="alphabetic" fill-opacity="1">1959</text></g><path fill="rgb(100,100,100)" stroke="none" paint-order="stroke fill markers" d=" M 290 396.73846153846154 L 305 396.73846153846154 L 305 500 L 290 500 L 290 396.73846153846154 Z" fill-opacity="1"/><g><text fill="rgb(100,100,100)" stroke="none" font-family="sans-serif" font-size="12px" font-style="normal" font-weight="normal" text-decoration="normal" x="310" y="1680" text-anchor="start" dominant-baseline="alphabetic" fill-opacity="1">1960</text></g><path fill="rgb(117,117,117)" stroke="none" paint-order="stroke fill markers" d=" M 310 343.3076923076923 L 325 343.3076923076923 L 325 500 L 310 500 L 310 343.3076923076923 Z" fill-opacity="1"/><g><text fill="rgb(117,117,117)" stroke="none" font-family="sans-serif" font-size="12px" font-style="normal" font-weight="normal" text-decoration="normal" x="330" y="1680" text-anchor="start" dominant-baseline="alphabetic" fill-opacity="1">1961</text></g><path fill="rgb(117,117,117)" stroke="none" paint-order="stroke fill markers" d=" M 330 308.6461538461539 L 345 308.6461538461539 L 345 500 L 330 500 L 330 308.6461538461539 Z" fill-opacity="1"/><g><text fill="rgb(117,117,117)" stroke="none" font-family="sans-serif" font-size="12px" font-style="normal" font-weight="normal" text-decoration="normal" x="350" y="1680" text-anchor="start" dominant-baseline="alphabetic" fill-opacity="1">1962</text></g><path fill="rgb(117,117,117)" stroke="none" paint-order="stroke fill markers" d=" M 350 276.17692307692306 L 365 276.17692307692306 L 365 500 L 350 500 L 350 276.17692307692306 Z" fill-opacity="1"/><g><text fill="rgb(117,117,117)" stroke="none" font-family="sans-serif" font-size="12px" font-style="normal" font-weight="normal" text-decoration="normal" x="370" y="1680" text-anchor="start" dominant-baseline="alphabetic" fill-opacity="1">1963</text></g><path fill="rgb(117,117,117)" stroke="none" paint-order="stroke fill markers" d=" M 370 248.86153846153846 L 385 248.86153846153846 L 385 500 L 370 500 L 370 248.86153846153846 Z" fill-opacity="1"/><g><text fill="rgb(117,117,117)" stroke="none" font-family="sans-serif" font-size="12px" font-style="normal" font-weight="normal" text-decoration="normal" x="390" y="1680" text-anchor="start" dominant-baseline="alphabetic" fill-opacity="1">1964</text></g><path fill="rgb(133,133,133)" stroke="none" paint-order="stroke fill markers" d=" M 390 230.91538461538465 L 405 230.91538461538465 L 405 500 L 390 500 L 390 230.91538461538465 Z" fill-opacity="1"/><g><text fill="rgb(133,133,133)" stroke="none" font-family="sans-serif" font-size="12px" font-style="normal" font-weight="normal" text-decoration="normal" x="410" y="1680" text-anchor="start" dominant-baseline="alphabetic" fill-opacity="1">1965</text></g><path fill="rgb(133,133,133)" stroke="none" paint-order="stroke fill markers" d=" M 410 210.8384615384615 L 425 210.8384615384615 L 425 500 L 410 500 L 410 210.8384615384615 Z" fill-opacity="1"/><g><text fill="rgb(133,133,133)" stroke="none" font-family="sans-serif" font-size="12px" font-style="normal" font-weight="normal" text-decoration="normal" x="430" y="1680" text-anchor="start" dominant-baseline="alphabetic" fill-opacity="1">1966</text></g><path fill="rgb(133,133,133)" stroke="none" paint-order="stroke fill markers" d=" M 430 203.05384615384617 L 445 203.05384615384617 L 445 500 L 430 500 L 430 203.05384615384617 Z" fill-opacity="1"/><g><text fill="rgb(133,133,133)" stroke="none" font-family="sans-serif" font-size="12px" font-style="normal" font-weight="normal" text-decoration="normal" x="450" y="1680" text-anchor="start" dominant-baseline="alphabetic" fill-opacity="1">1967</text></g><path fill="rgb(150,150,150)" stroke="none" paint-order="stroke fill markers" d=" M 450 191.74615384615385 L 465 191.74615384615385 L 465 500 L 450 500 L 450 191.74615384615385 Z" fill-opacity="1"/><g><text fill="rgb(150,150,150)" stroke="none" font-family="sans-serif" font-size="12px" font-style="normal" font-weight="normal" text-decoration="normal" x="470" y="1680" text-anchor="start" dominant-baseline="alphabetic" fill-opacity="1">1968</text></g><path fill="rgb(150,150,150)" stroke="none" paint-order="stroke fill markers" d=" M 470 196.59230769230766 L 485 196.59230769230766 L 485 500 L 470 500 L 470 196.59230769230766 Z" fill-opacity="1"/><g><text fill="rgb(150,150,150)" stroke="none" font-family="sans-serif" font-size="12px" font-style="normal" font-weight="normal" text-decoration="normal" x="490" y="1680" text-anchor="start" dominant-baseline="alphabetic" fill-opacity="1">1969</text></g><path fill="rgb(150,150,150)" stroke="none" paint-order="stroke fill markers" d=" M 490 202.9153846153846 L 505 202.9153846153846 L 505 500 L 490 500 L 490 202.9153846153846 Z" fill-opacity="1"/><g><text fill="rgb(150,150,150)" stroke="none" font-family="sans-serif" font-size="12px" font-style="normal" font-weight="normal" text-decoration="normal" x="510" y="1680" text-anchor="start" dominant-baseline="alphabetic" fill-opacity="1">1970</text></g><path fill="rgb(150,150,150)" stroke="none" paint-order="stroke fill markers" d=" M 510 205.8615384615385 L 525 205.8615384615385 L 525 500 L 510 500 L 510 205.8615384615385 Z" fill-opacity="1"/><g><text fill="rgb(150,150,150)" stroke="none" font-family="sans-serif" font-size="12px" font-style="normal" font-weight="normal" text-decoration="normal" x="530" y="1680" text-anchor="start" dominant-baseline="alphabetic" fill-opacity="1">1971</text></g><path fill="rgb(150,150,150)" stroke="none" paint-order="stroke fill markers" d=" M 530 194.7923076923077 L 545 194.7923076923077 L 545 500 L 530 500 L 530 194.7923076923077 Z" fill-opacity="1"/><g><text fill="rgb(150,150,150)" stroke="none" font-family="sans-serif" font-size="12px" font-style="normal" font-weight="normal" text-decoration="normal" x="550" y="1680" text-anchor="start" dominant-baseline="alphabetic" fill-opacity="1">1972</text></g><path fill="rgb(150,150,150)" stroke="none" paint-order="stroke fill markers" d=" M 550 178.83076923076925 L 565 178.83076923076925 L 565 500 L 550 500 L 550 178.83076923076925 Z" fill-opacity="1"/><g><text fill="rgb(150,150,150)" stroke="none" font-family="sans-serif" font-size="12px" font-style="normal" font-weight="normal" text-decoration="normal" x="570" y="1680" text-anchor="start" dominant-baseline="alphabetic" fill-opacity="1">1973</text></g><path fill="rgb(150,150,150)" stroke="none" paint-order="stroke fill markers" d=" M 570 157.73846153846154 L 585 157.73846153846154 L 585 500 L 570 500 L 570 157.73846153846154 Z" fill-opacity="1"/><g><text fill="rgb(150,150,150)" stroke="none" font-family="sans-serif" font-size="12px" font-style="normal" font-weight="normal" text-decoration="normal" x="590" y="1680" text-anchor="start" dominant-baseline="alphabetic" fill-opacity="1">1974</text></g><path fill="rgb(167,167,167)" stroke="none" paint-order="stroke fill markers" d=" M 590 141.11538461538464 L 605 141.11538461538464 L 605 500 L 590 500 L 590 141.11538461538464 Z" fill-opacity="1"/><g><text fill="rgb(167,167,167)" stroke="none" font-family="sans-serif" font-size="12px" font-style="normal" font-weight="normal" text-decoration="normal" x="610" y="1680" text-anchor="start" dominant-baseline="alphabetic" fill-opacity="1">1975</text></g><path fill="rgb(167,167,167)" stroke="none" paint-order="stroke fill markers" d=" M 610 133.52307692307693 L 625 133.52307692307693 L 625 500 L 610 500 L 610 133.52307692307693 Z" fill-opacity="1"/><g><text fill="rgb(167,167,167)" stroke="none" font-family="sans-serif" font-size="12px" font-style="normal" font-weight="normal" text-decoration="normal" x="630" y="1680" text-anchor="start" dominant-baseline="alphabetic" fill-opacity="1">1976</text></g><path fill="rgb(167,167,167)" stroke="none" paint-order="stroke fill markers" d=" M 630 123.1307692307692 L 645 123.1307692307692 L 645 500 L 630 500 L 630 123.1307692307692 Z" fill-opacity="1"/><g><text fill="rgb(167,167,167)" stroke="none" font-family="sans-serif" font-size="12px" font-style="normal" font-weight="normal" text-decoration="normal" x="650" y="1680" text-anchor="start" dominant-baseline="alphabetic" fill-opacity="1">1977</text></g><path fill="rgb(167,167,167)" stroke="none" paint-order="stroke fill markers" d=" M 650 109.5769230769231 L 665 109.5769230769231 L 665 500 L 650 500 L 650 109.5769230769231 Z" fill-opacity="1"/><g><text fill="rgb(167,167,167)" stroke="none" font-family="sans-serif" font-size="12px" font-style="normal" font-weight="normal" text-decoration="normal" x="670" y="1680" text-anchor="start" dominant-baseline="alphabetic" fill-opacity="1">1978</text></g><path fill="rgb(167,167,167)" stroke="none" paint-order="stroke fill markers" d=" M 670 103.55384615384617 L 685 103.55384615384617 L 685 500 L 670 500 L 670 103.55384615384617 Z" fill-opacity="1"/><g><text fill="rgb(167,167,167)" stroke="none" font-family="sans-serif" font-size="12px" font-style="normal" font-weight="normal" text-decoration="normal" x="690" y="1680" text-anchor="start" dominant-baseline="alphabetic" fill-opacity="1">1979</text></g><path fill="rgb(167,167,167)" stroke="none" paint-order="stroke fill markers" d=" M 690 89.57692307692304 L 705 89.57692307692304 L 705 500 L 690 500 L 690 89.57692307692304 Z" fill-opacity="1"/><g><text fill="rgb(167,167,167)" stroke="none" font-family="sans-serif" font-size="12px" font-style="normal" font-weight="normal" text-decoration="normal" x="710" y="1680" text-anchor="start" dominant-baseline="alphabetic" fill-opacity="1">1980</text></g><path fill="rgb(167,167,167)" stroke="none" paint-order="stroke fill markers" d=" M 710 71.11538461538464 L 725 71.11538461538464 L 725 500 L 710 500 L 710 71.11538461538464 Z" fill-opacity="1"/><g><text fill="rgb(167,167,167)" stroke="none" font-family="sans-serif" font-size="12px" font-style="normal" font-weight="normal" text-decoration="normal" x="730" y="1680" text-anchor="start" dominant-baseline="alphabetic" fill-opacity="1">1981</text></g><path fill="rgb(167,167,167)" stroke="none" paint-order="stroke fill markers" d=" M 730 66.37692307692305 L 745 66.37692307692305 L 745 500 L 730 500 L 730 66.37692307692305 Z" fill-opacity="1"/><g><text fill="rgb(167,167,167)" stroke="none" font-family="sans-serif" font-size="12px" font-style="normal" font-weight="normal" text-decoration="normal" x="750" y="1680" text-anchor="start" dominant-baseline="alphabetic" fill-opacity="1">1982</text></g><path fill="rgb(167,167,167)" stroke="none" paint-order="stroke fill markers" d=" M 750 59.369230769230796 L 765 59.369230769230796 L 765 500 L 750 500 L 750 59.369230769230796 Z" fill-opacity="1"/><g><text fill="rgb(167,167,167)" stroke="none" font-family="sans-serif" font-size="12px" font-style="normal" font-weight="normal" text-decoration="normal" x="770" y="1680" text-anchor="start" dominant-baseline="alphabetic" fill-opacity="1">1983</text></g><path fill="rgb(167,167,167)" stroke="none" paint-order="stroke fill markers" d=" M 770 43.46153846153845 L 785 43.46153846153845 L 785 500 L 770 500 L 770 43.46153846153845 Z" fill-opacity="1"/><g><text fill="rgb(167,167,167)" stroke="none" font-family="sans-serif" font-size="12px" font-style="normal" font-weight="normal" text-decoration="normal" x="790" y="1680" text-anchor="start" dominant-baseline="alphabetic" fill-opacity="1">1984</text></g><path fill="rgb(167,167,167)" stroke="none" paint-order="stroke fill markers" d=" M 790 29.430769230769215 L 805 29.430769230769215 L 805 500 L 790 500 L 790 29.430769230769215 Z" fill-opacity="1"/><g><text fill="rgb(167,167,167)" stroke="none" font-family="sans-serif" font-size="12px" font-style="normal" font-weight="normal" text-decoration="normal" x="810" y="1680" text-anchor="start" dominant-baseline="alphabetic" fill-opacity="1">1985</text></g><path fill="rgb(167,167,167)" stroke="none" paint-order="stroke fill markers" d=" M 810 15.969230769230819 L 825 15.969230769230819 L 825 500 L 810 500 L 810 15.969230769230819 Z" fill-opacity="1"/><g><text fill="rgb(167,167,167)" stroke="none" font-family="sans-serif" font-size="12px" font-style="normal" font-weight="normal" text-decoration="normal" x="830" y="1680" text-anchor="start" dominant-baseline="alphabetic" fill-opacity="1">1986</text></g><path fill="rgb(167,167,167)" stroke="none" paint-order="stroke fill markers" d=" M 830 4.238461538461536 L 845 4.238461538461536 L 845 500 L 830 500 L 830 4.238461538461536 Z" fill-opacity="1"/><g><text fill="rgb(167,167,167)" stroke="none" font-family="sans-serif" font-size="12px" font-style="normal" font-weight="normal" text-decoration="normal" x="850" y="1680" text-anchor="start" dominant-baseline="alphabetic" fill-opacity="1">1987</text></g><path fill="rgb(167,167,167)" stroke="none" paint-order="stroke fill markers" d=" M 850 17.49230769230769 L 865 17.49230769230769 L 865 500 L 850 500 L 850 17.49230769230769 Z" fill-opacity="1"/><g><text fill="rgb(167,167,167)" stroke="none" font-family="sans-serif" font-size="12px" font-style="normal" font-weight="normal" text-decoration="normal" x="870" y="1680" text-anchor="start" dominant-baseline="alphabetic" fill-opacity="1">1988</text></g><path fill="rgb(167,167,167)" stroke="none" paint-order="stroke fill markers" d=" M 870 32.46153846153851 L 885 32.46153846153851 L 885 500 L 870 500 L 870 32.46153846153851 Z" fill-opacity="1"/><g><text fill="rgb(167,167,167)" stroke="none" font-family="sans-serif" font-size="12px" font-style="normal" font-weight="normal" text-decoration="normal" x="890" y="1680" text-anchor="start" dominant-baseline="alphabetic" fill-opacity="1">1989</text></g><path fill="rgb(167,167,167)" stroke="none" paint-order="stroke fill markers" d=" M 890 51.261538461538464 L 905 51.261538461538464 L 905 500 L 890 500 L 890 51.261538461538464 Z" fill-opacity="1"/><g><text fill="rgb(167,167,167)" stroke="none" font-family="sans-serif" font-size="12px" font-style="normal" font-weight="normal" text-decoration="normal" x="910" y="1680" text-anchor="start" dominant-baseline="alphabetic" fill-opacity="1">1990</text></g><path fill="rgb(167,167,167)" stroke="none" paint-order="stroke fill markers" d=" M 910 72.98461538461538 L 925 72.98461538461538 L 925 500 L 910 500 L 910 72.98461538461538 Z" fill-opacity="1"/><g><text fill="rgb(167,167,167)" stroke="none" font-family="sans-serif" font-size="12px" font-style="normal" font-weight="normal" text-decoration="normal" x="930" y="1680" text-anchor="start" dominant-baseline="alphabetic" fill-opacity="1">1991</text></g><path fill="rgb(167,167,167)" stroke="none" paint-order="stroke fill markers" d=" M 930 120.44615384615389 L 945 120.44615384615389 L 945 500 L 930 500 L 930 120.44615384615389 Z" fill-opacity="1"/><g><text fill="rgb(167,167,167)" stroke="none" font-family="sans-serif" font-size="12px" font-style="normal" font-weight="normal" text-decoration="normal" x="950" y="1680" text-anchor="start" dominant-baseline="alphabetic" fill-opacity="1">1992</text></g><path fill="rgb(167,167,167)" stroke="none" paint-order="stroke fill markers" d=" M 950 180.5846153846154 L 965 180.5846153846154 L 965 500 L 950 500 L 950 180.5846153846154 Z" fill-opacity="1"/><g><text fill="rgb(167,167,167)" stroke="none" font-family="sans-serif" font-size="12px" font-style="normal" font-weight="normal" text-decoration="normal" x="970" y="1680" text-anchor="start" dominant-baseline="alphabetic" fill-opacity="1">1993</text></g><path fill="rgb(167,167,167)" stroke="none" paint-order="stroke fill markers" d=" M 970 215.51538461538462 L 985 215.51538461538462 L 985 500 L 970 500 L 970 215.51538461538462 Z" fill-opacity="1"/><g><text fill="rgb(167,167,167)" stroke="none" font-family="sans-serif" font-size="12px" font-style="normal" font-weight="normal" text-decoration="normal" x="990" y="1680" text-anchor="start" dominant-baseline="alphabetic" fill-opacity="1">1994</text></g><path fill="rgb(167,167,167)" stroke="none" paint-order="stroke fill markers" d=" M 990 243.27692307692308 L 1005 243.27692307692308 L 1005 500 L 990 500 L 990 243.27692307692308 Z" fill-opacity="1"/><g><text fill="rgb(167,167,167)" stroke="none" font-family="sans-serif" font-size="12px" font-style="normal" font-weight="normal" text-decoration="normal" x="1010" y="1680" text-anchor="start" dominant-baseline="alphabetic" fill-opacity="1">1995</text></g><path fill="rgb(167,167,167)" stroke="none" paint-order="stroke fill markers" d=" M 1010 268.3538461538462 L 1025 268.3538461538462 L 1025 500 L 1010 500 L 1010 268.3538461538462 Z" fill-opacity="1"/><g><text fill="rgb(167,167,167)" stroke="none" font-family="sans-serif" font-size="12px" font-style="normal" font-weight="normal" text-decoration="normal" x="1030" y="1680" text-anchor="start" dominant-baseline="alphabetic" fill-opacity="1">1996</text></g><path fill="rgb(167,167,167)" stroke="none" paint-order="stroke fill markers" d=" M 1030 285.3538461538461 L 1045 285.3538461538461 L 1045 500 L 1030 500 L 1030 285.3538461538461 Z" fill-opacity="1"/><g><text fill="rgb(167,167,167)" stroke="none" font-family="sans-serif" font-size="12px" font-style="normal" font-weight="normal" text-decoration="normal" x="1050" y="1680" text-anchor="start" dominant-baseline="alphabetic" fill-opacity="1">1997</text></g><path fill="rgb(167,167,167)" stroke="none" paint-order="stroke fill markers" d=" M 1050 290.03076923076924 L 1065 290.03076923076924 L 1065 500 L 1050 500 L 1050 290.03076923076924 Z" fill-opacity="1"/><g><text fill="rgb(167,167,167)" stroke="none" font-family="sans-serif" font-size="12px" font-style="normal" font-weight="normal" text-decoration="normal" x="1070" y="1680" text-anchor="start" dominant-baseline="alphabetic" fill-opacity="1">1998</text></g><path fill="rgb(183,183,183)" stroke="none" paint-order="stroke fill markers" d=" M 1070 299.2692307692308 L 1085 299.2692307692308 L 1085 500 L 1070 500 L 1070 299.2692307692308 Z" fill-opacity="1"/><g><text fill="rgb(183,183,183)" stroke="none" font-family="sans-serif" font-size="12px" font-style="normal" font-weight="normal" text-decoration="normal" x="1090" y="1680" text-anchor="start" dominant-baseline="alphabetic" fill-opacity="1">1999</text></g><path fill="rgb(183,183,183)" stroke="none" paint-order="stroke fill markers" d=" M 1090 308.60769230769233 L 1105 308.60769230769233 L 1105 500 L 1090 500 L 1090 308.60769230769233 Z" fill-opacity="1"/><g><text fill="rgb(183,183,183)" stroke="none" font-family="sans-serif" font-size="12px" font-style="normal" font-weight="normal" text-decoration="normal" x="1110" y="1680" text-anchor="start" dominant-baseline="alphabetic" fill-opacity="1">2000</text></g><path fill="rgb(183,183,183)" stroke="none" paint-order="stroke fill markers" d=" M 1110 316.5692307692308 L 1125 316.5692307692308 L 1125 500 L 1110 500 L 1110 316.5692307692308 Z" fill-opacity="1"/><g><text fill="rgb(183,183,183)" stroke="none" font-family="sans-serif" font-size="12px" font-style="normal" font-weight="normal" text-decoration="normal" x="1130" y="1680" text-anchor="start" dominant-baseline="alphabetic" fill-opacity="1">2001</text></g><path fill="rgb(183,183,183)" stroke="none" paint-order="stroke fill markers" d=" M 1130 325.7307692307692 L 1145 325.7307692307692 L 1145 500 L 1130 500 L 1130 325.7307692307692 Z" fill-opacity="1"/><g><text fill="rgb(183,183,183)" stroke="none" font-family="sans-serif" font-size="12px" font-style="normal" font-weight="normal" text-decoration="normal" x="1150" y="1680" text-anchor="start" dominant-baseline="alphabetic" fill-opacity="1">2002</text></g><path fill="rgb(183,183,183)" stroke="none" paint-order="stroke fill markers" d=" M 1150 334.1461538461539 L 1165 334.1461538461539 L 1165 500 L 1150 500 L 1150 334.1461538461539 Z" fill-opacity="1"/><g><text fill="rgb(183,183,183)" stroke="none" font-family="sans-serif" font-size="12px" font-style="normal" font-weight="normal" text-decoration="normal" x="1170" y="1680" text-anchor="start" dominant-baseline="alphabetic" fill-opacity="1">2003</text></g><path fill="rgb(183,183,183)" stroke="none" paint-order="stroke fill markers" d=" M 1170 345.3384615384615 L 1185 345.3384615384615 L 1185 500 L 1170 500 L 1170 345.3384615384615 Z" fill-opacity="1"/><g><text fill="rgb(183,183,183)" stroke="none" font-family="sans-serif" font-size="12px" font-style="normal" font-weight="normal" text-decoration="normal" x="1190" y="1680" text-anchor="start" dominant-baseline="alphabetic" fill-opacity="1">2004</text></g><path fill="rgb(183,183,183)" stroke="none" paint-order="stroke fill markers" d=" M 1190 364.4307692307692 L 1205 364.4307692307692 L 1205 500 L 1190 500 L 1190 364.4307692307692 Z" fill-opacity="1"/><g><text fill="rgb(183,183,183)" stroke="none" font-family="sans-serif" font-size="12px" font-style="normal" font-weight="normal" text-decoration="normal" x="1210" y="1680" text-anchor="start" dominant-baseline="alphabetic" fill-opacity="1">2005</text></g><path fill="rgb(183,183,183)" stroke="none" paint-order="stroke fill markers" d=" M 1210 373.94615384615383 L 1225 373.94615384615383 L 1225 500 L 1210 500 L 1210 373.94615384615383 Z" fill-opacity="1"/><g><text fill="rgb(183,183,183)" stroke="none" font-family="sans-serif" font-size="12px" font-style="normal" font-weight="normal" text-decoration="normal" x="1230" y="1680" text-anchor="start" dominant-baseline="alphabetic" fill-opacity="1">2006</text></g><path fill="rgb(200,200,200)" stroke="none" paint-order="stroke fill markers" d=" M 1230 380.9307692307692 L 1245 380.9307692307692 L 1245 500 L 1230 500 L 1230 380.9307692307692 Z" fill-opacity="1"/><g><text fill="rgb(200,200,200)" stroke="none" font-family="sans-serif" font-size="12px" font-style="normal" font-weight="normal" text-decoration="normal" x="1250" y="1680" text-anchor="start" dominant-baseline="alphabetic" fill-opacity="1">2007</text></g><path fill="rgb(200,200,200)" stroke="none" paint-order="stroke fill markers" d=" M 1250 400.03846153846155 L 1265 400.03846153846155 L 1265 500 L 1250 500 L 1250 400.03846153846155 Z" fill-opacity="1"/><g><text fill="rgb(200,200,200)" stroke="none" font-family="sans-serif" font-size="12px" font-style="normal" font-weight="normal" text-decoration="normal" x="1270" y="1680" text-anchor="start" dominant-baseline="alphabetic" fill-opacity="1">2008</text></g><path fill="rgb(200,200,200)" stroke="none" paint-order="stroke fill markers" d=" M 1270 406.36923076923074 L 1285 406.36923076923074 L 1285 500 L 1270 500 L 1270 406.36923076923074 Z" fill-opacity="1"/><g><text fill="rgb(200,200,200)" stroke="none" font-family="sans-serif" font-size="12px" font-style="normal" font-weight="normal" text-decoration="normal" x="1290" y="1680" text-anchor="start" dominant-baseline="alphabetic" fill-opacity="1">2009</text></g><path fill="rgb(200,200,200)" stroke="none" paint-order="stroke fill markers" d=" M 1290 410.5 L 1305 410.5 L 1305 500 L 1290 500 L 1290 410.5 Z" fill-opacity="1"/><g><text fill="rgb(200,200,200)" stroke="none" font-family="sans-serif" font-size="12px" font-style="normal" font-weight="normal" text-decoration="normal" x="1310" y="1680" text-anchor="start" dominant-baseline="alphabetic" fill-opacity="1">2010</text></g><path fill="rgb(200,200,200)" stroke="none" paint-order="stroke fill markers" d=" M 1310 414 L 1325 414 L 1325 500 L 1310 500 L 1310 414 Z" fill-opacity="1"/><g><text fill="rgb(200,200,200)" stroke="none" font-family="sans-serif" font-size="12px" font-style="normal" font-weight="normal" text-decoration="normal" x="1330" y="1680" text-anchor="start" dominant-baseline="alphabetic" fill-opacity="1">2011</text></g><path fill="rgb(200,200,200)" stroke="none" paint-order="stroke fill markers" d=" M 1330 418.03076923076924 L 1345 418.03076923076924 L 1345 500 L 1330 500 L 1330 418.03076923076924 Z" fill-opacity="1"/><g><text fill="rgb(200,200,200)" stroke="none" font-family="sans-serif" font-size="12px" font-style="normal" font-weight="normal" text-decoration="normal" x="1350" y="1680" text-anchor="start" dominant-baseline="alphabetic" fill-opacity="1">2012</text></g><path fill="rgb(200,200,200)" stroke="none" paint-order="stroke fill markers" d=" M 1350 421.2692307692308 L 1365 421.2692307692308 L 1365 500 L 1350 500 L 1350 421.2692307692308 Z" fill-opacity="1"/><g><text fill="rgb(200,200,200)" stroke="none" font-family="sans-serif" font-size="12px" font-style="normal" font-weight="normal" text-decoration="normal" x="1370" y="1680" text-anchor="start" dominant-baseline="alphabetic" fill-opacity="1">2013</text></g><path fill="rgb(200,200,200)" stroke="none" paint-order="stroke fill markers" d=" M 1370 421.4230769230769 L 1385 421.4230769230769 L 1385 500 L 1370 500 L 1370 421.4230769230769 Z" fill-opacity="1"/><g><text fill="rgb(200,200,200)" stroke="none" font-family="sans-serif" font-size="12px" font-style="normal" font-weight="normal" text-decoration="normal" x="1390" y="1680" text-anchor="start" dominant-baseline="alphabetic" fill-opacity="1">2014</text></g><path fill="rgb(200,200,200)" stroke="none" paint-order="stroke fill markers" d=" M 1390 421.96153846153845 L 1405 421.96153846153845 L 1405 500 L 1390 500 L 1390 421.96153846153845 Z" fill-opacity="1"/></g></svg>